<svg width="81" height="12" viewBox="0 0 81 12" fill="none" xmlns="http://www.w3.org/2000/svg">
  <path d="M21.9298 4.09492H19.787C19.7259 3.74561 19.6132 3.43617 19.4489 3.16659C19.2847 2.89321 19.0803 2.6616 18.8359 2.47176C18.5914 2.28192 18.3126 2.13953 17.9994 2.04461C17.69 1.9459 17.3557 1.89654 16.9967 1.89654C16.3588 1.89654 15.7935 2.056 15.3007 2.37494C14.808 2.69008 14.4222 3.1533 14.1434 3.76459C13.8645 4.37209 13.7251 5.11438 13.7251 5.99146C13.7251 6.88372 13.8645 7.6355 14.1434 8.2468C14.426 8.8543 14.8118 9.31372 15.3007 9.62506C15.7935 9.93261 16.3569 10.0864 16.991 10.0864C17.3424 10.0864 17.6709 10.0408 17.9764 9.94969C18.2858 9.85477 18.5628 9.71619 18.8072 9.53394C19.0555 9.35169 19.2637 9.12767 19.4317 8.86189C19.6036 8.59611 19.722 8.29236 19.787 7.95064L21.9298 7.96203C21.8496 8.51637 21.6758 9.03654 21.4084 9.52254C21.1449 10.0085 20.7992 10.4376 20.3714 10.8097C19.9436 11.178 19.4432 11.4665 18.8703 11.6754C18.2973 11.8804 17.6613 11.9829 16.9623 11.9829C15.931 11.9829 15.0105 11.7456 14.2007 11.271C13.3909 10.7964 12.753 10.1111 12.287 9.215C11.821 8.31894 11.588 7.24442 11.588 5.99146C11.588 4.73469 11.8229 3.66018 12.2927 2.76792C12.7626 1.87186 13.4024 1.18652 14.2121 0.711912C15.0219 0.237304 15.9386 0 16.9623 0C17.6155 0 18.2228 0.0911248 18.7843 0.273374C19.3458 0.455624 19.8462 0.723304 20.2855 1.07641C20.7247 1.42572 21.0857 1.85477 21.3683 2.36355C21.6548 2.86853 21.842 3.44566 21.9298 4.09492Z" fill="white"/>
  <path d="M33.9203 4.09492H31.7775C31.7164 3.74561 31.6037 3.43617 31.4394 3.16659C31.2752 2.89321 31.0708 2.6616 30.8264 2.47176C30.5819 2.28192 30.3031 2.13953 29.9899 2.04461C29.6805 1.9459 29.3462 1.89654 28.9872 1.89654C28.3493 1.89654 27.784 2.056 27.2913 2.37494C26.7985 2.69008 26.4127 3.1533 26.1339 3.76459C25.855 4.37209 25.7156 5.11438 25.7156 5.99146C25.7156 6.88372 25.855 7.6355 26.1339 8.2468C26.4165 8.8543 26.8023 9.31372 27.2913 9.62506C27.784 9.93261 28.3474 10.0864 28.9815 10.0864C29.3329 10.0864 29.6614 10.0408 29.9669 9.94969C30.2763 9.85477 30.5533 9.71619 30.7977 9.53394C31.046 9.35169 31.2542 9.12767 31.4223 8.86189C31.5941 8.59611 31.7126 8.29236 31.7775 7.95064L33.9203 7.96203C33.8401 8.51637 33.6663 9.03654 33.3989 9.52254C33.1354 10.0085 32.7897 10.4376 32.3619 10.8097C31.9341 11.178 31.4337 11.4665 30.8608 11.6754C30.2878 11.8804 29.6518 11.9829 28.9528 11.9829C27.9215 11.9829 27.001 11.7456 26.1912 11.271C25.3814 10.7964 24.7435 10.1111 24.2775 9.215C23.8115 8.31894 23.5785 7.24442 23.5785 5.99146C23.5785 4.73469 23.8134 3.66018 24.2832 2.76792C24.7531 1.87186 25.3929 1.18652 26.2026 0.711912C27.0124 0.237304 27.9291 0 28.9528 0C29.606 0 30.2133 0.0911248 30.7748 0.273374C31.3363 0.455624 31.8367 0.723304 32.276 1.07641C32.7152 1.42572 33.0762 1.85477 33.3588 2.36355C33.6453 2.86853 33.8325 3.44566 33.9203 4.09492Z" fill="white"/>
  <path d="M46.352 5.99146C46.352 7.24822 46.1152 8.32463 45.6416 9.22069C45.1717 10.113 44.53 10.7964 43.7164 11.271C42.9066 11.7456 41.988 11.9829 40.9605 11.9829C39.933 11.9829 39.0125 11.7456 38.1989 11.271C37.3891 10.7926 36.7474 10.1073 36.2737 9.215C35.8039 8.31894 35.569 7.24442 35.569 5.99146C35.569 4.73469 35.8039 3.66018 36.2737 2.76792C36.7474 1.87186 37.3891 1.18652 38.1989 0.711912C39.0125 0.237304 39.933 0 40.9605 0C41.988 0 42.9066 0.237304 43.7164 0.711912C44.53 1.18652 45.1717 1.87186 45.6416 2.76792C46.1152 3.66018 46.352 4.73469 46.352 5.99146ZM44.2149 5.99146C44.2149 5.10679 44.0755 4.3607 43.7966 3.7532C43.5216 3.14191 43.1397 2.68059 42.6507 2.36925C42.1618 2.05411 41.5984 1.89654 40.9605 1.89654C40.3226 1.89654 39.7592 2.05411 39.2703 2.36925C38.7814 2.68059 38.3975 3.14191 38.1187 3.7532C37.8436 4.3607 37.7061 5.10679 37.7061 5.99146C37.7061 6.87613 37.8436 7.62411 38.1187 8.23541C38.3975 8.84291 38.7814 9.30422 39.2703 9.61936C39.7592 9.93071 40.3226 10.0864 40.9605 10.0864C41.5984 10.0864 42.1618 9.93071 42.6507 9.61936C43.1397 9.30422 43.5216 8.84291 43.7966 8.23541C44.0755 7.62411 44.2149 6.87613 44.2149 5.99146Z" fill="white"/>
  <path d="M55.7585 0.159469H57.8842V7.77978C57.8842 8.61509 57.6855 9.34979 57.2883 9.98386C56.8949 10.6179 56.341 11.1134 55.6267 11.4703C54.9124 11.8234 54.0778 12 53.1229 12C52.1642 12 51.3276 11.8234 50.6134 11.4703C49.8991 11.1134 49.3452 10.6179 48.9518 9.98386C48.5584 9.34979 48.3617 8.61509 48.3617 7.77978V0.159469H50.4873V7.60323C50.4873 8.08923 50.5943 8.52207 50.8082 8.90176C51.0259 9.28144 51.3315 9.5795 51.7249 9.79592C52.1183 10.0085 52.5843 10.1149 53.1229 10.1149C53.6615 10.1149 54.1275 10.0085 54.5209 9.79592C54.9182 9.5795 55.2237 9.28144 55.4376 8.90176C55.6515 8.52207 55.7585 8.08923 55.7585 7.60323V0.159469Z" fill="white"/>
  <path d="M69.8374 0.159469V11.8234H67.9467L62.4177 3.8785H62.3203V11.8234H60.1946V0.159469H62.0968L67.6201 8.11011H67.7232V0.159469H69.8374Z" fill="white"/>
  <path d="M71.6379 1.93071V0.159469H81V1.93071H77.3732V11.3234L75.2647 11.8234V1.93071H71.6379Z" fill="white"/>
  <path fill-rule="evenodd" clip-rule="evenodd" d="M2.2689 11.8234H0L4.131 0.159469H6.75513L10.8919 11.8234H8.62296L7.65079 8.94732H3.2393L2.2689 11.8234ZM5.39723 2.5515H5.4889L7.07711 7.25012H3.81193L5.39723 2.5515Z" fill="white"/>
</svg>
