<svg width="38" height="48" viewBox="0 0 38 48" fill="none" xmlns="http://www.w3.org/2000/svg">
  <path fill-rule="evenodd" clip-rule="evenodd" d="M7.52597 37.6991L7.59036 37.883C7.82863 38.2233 8.30517 39.0399 8.30517 39.5844C8.30517 40.1288 8.54343 40.7186 8.66257 40.9454C8.90083 41.2857 9.16293 42.1704 8.30517 42.987C8.30517 43.2139 8.09072 43.4974 7.23296 43.4974C7.08538 43.4974 6.87466 43.6142 6.70874 43.7061C6.63211 43.7486 6.56504 43.7857 6.51816 43.8037C5.92249 43.8717 4.65968 44.0759 4.37376 44.3481C4.01635 44.6884 3.65895 45.0286 4.01635 45.7091C4.30228 46.2536 4.61202 46.3897 4.73115 46.3897C4.61201 46.1628 4.37375 45.6411 4.37375 45.3689C4.37375 45.2167 4.44523 45.2006 4.58819 45.1685C4.76489 45.1288 5.05082 45.0645 5.44595 44.6884C5.56508 44.5749 5.87483 44.3481 6.16075 44.3481C6.04162 44.6884 6.01778 45.4371 6.87554 45.7093C6.51815 45.0286 6.58057 44.448 6.87555 44.5182C7.59035 44.6884 8.21048 44.3932 8.66256 44.178C8.78169 44.1212 9.13909 44.1212 9.58914 44.1212C10.4893 44.1212 11.6272 43.9511 12.1038 43.4974C11.6273 43.4974 10.7355 43.5995 10.4496 43.3273C10.1072 43.0013 10.2568 42.051 10.27 41.9715C10.2706 41.9679 10.2728 41.9658 10.2765 41.965C10.3812 41.9419 11.9161 41.5908 12.9514 40.6052C13.0022 40.5568 13.0498 40.5114 13.0944 40.469C12.1984 40.0475 11.2896 39.6044 10.4035 39.1356C9.33975 38.7274 8.38281 38.2412 7.52597 37.6991Z" fill="white"/>
  <path d="M6.40088 17.8153C6.4484 18.1747 6.1957 18.582 5.81955 18.6365C5.4856 18.6849 5.28585 18.5635 5.15852 18.3632L5.1998 18.3317C5.32601 18.4142 5.4759 18.4653 5.71517 18.4306C5.96521 18.3943 6.10776 18.3093 6.1619 18.1515C6.17627 18.1096 6.13763 18.0728 6.09443 18.0608C6.0117 18.0379 5.94742 17.9703 5.93584 17.8827L6.29595 17.6565C6.35041 17.6853 6.39058 17.7374 6.40088 17.8153Z" fill="white"/>
  <path fill-rule="evenodd" clip-rule="evenodd" d="M10.2917 17.6L6.47803 18.8154C6.18714 18.9586 5.85719 18.9717 5.56587 18.8723C5.55663 18.8691 5.55109 18.8601 5.55256 18.8509C5.55428 18.8402 5.56487 18.8329 5.57616 18.8344C6.11122 18.9047 6.60672 18.5545 6.68846 18.044C6.75681 17.6171 6.51454 17.2116 6.12251 17.0369C6.10752 17.0303 6.09917 17.0164 6.0986 17.0024C6.09762 16.9784 6.12582 16.9663 6.14875 16.9566L12.6667 13.6L11.4792 13.2L12.2708 11.6L10.2917 12L12.2708 8.37245L8.3125 12.4L9.10417 8.8L7.125 11.6V9.2C5.81129 10.7008 4.62793 15.4882 4.62793 16.5847C3.80751 16.8469 2.83321 18.1108 2.83321 18.1108C2.83321 18.1108 3.74487 17.9281 3.92761 17.9936C4.504 18.2002 4.88511 19.2417 5.13916 19.9359C5.14525 19.9525 5.15126 19.969 5.15721 19.9852C4.39928 20.1046 4.63028 20.6352 4.84052 20.8857C4.84052 20.8857 4.07557 20.4856 3.20395 20.3407C3.82034 20.6653 5.04581 21.1861 4.84052 21.5105L5.70043 20.8857L5.54167 22L8.3125 20.8L10.2917 17.6ZM5.81955 18.6365C6.1957 18.582 6.4484 18.1747 6.40088 17.8153C6.39058 17.7374 6.35041 17.6853 6.29595 17.6565L5.93584 17.8827C5.94742 17.9703 6.0117 18.0379 6.09443 18.0608C6.13763 18.0728 6.17627 18.1096 6.1619 18.1515C6.10776 18.3093 5.96521 18.3943 5.71517 18.4306C5.4759 18.4653 5.32601 18.4142 5.1998 18.3317L5.15852 18.3632C5.28585 18.5635 5.4856 18.6849 5.81955 18.6365Z" fill="#09090D"/>
  <path d="M6.47803 18.8154L10.2917 17.6L8.3125 20.8L5.54167 22L5.70043 20.8857L4.84052 21.5105C4.65818 21.7987 5.12892 21.076 4.84052 21.5105C4.84052 21.5105 3.16667 24 2.55171 25.0569C1.53748 26.8 1.71405 29.3411 3.25379 32.4C4.07962 34.0406 5.38489 35.6801 7.33668 37.0339C8.29025 37.6953 9.39814 38.2885 10.6798 38.7802C11.5658 39.249 12.4744 39.692 13.3702 40.1134C13.4724 40.1614 13.5744 40.2092 13.6761 40.2567C13.864 41.0166 14.0262 42.673 13.1718 43.2194C12.756 43.4853 12.61 43.6476 12.5027 43.7669C12.3345 43.9541 12.2614 44.0353 11.3918 44.2438C10.2526 44.517 9.49318 45.0406 9.25585 45.2682C9.01853 45.6097 8.75746 46.3609 9.61185 46.6341C9.37452 46.1788 9.18466 45.2682 10.3238 45.2682C10.4425 45.4959 10.9646 45.7463 12.1038 44.9267C12.6971 44.6991 13.6702 44.4487 12.8158 45.2682C11.9614 46.0878 11.9851 46.5203 12.1038 46.6341C11.9851 46.9756 11.8902 47.7268 12.4598 48C12.3411 47.7724 12.2462 47.1805 12.8158 46.6341C12.9345 46.7479 13.1718 46.6341 13.3498 45.9512C13.6465 45.7235 13.8838 45.2682 13.8838 45.2682C14.1211 44.9267 14.667 44.4487 14.9518 45.2682C15.1891 45.4959 15.8062 45.9512 16.3757 45.9512C16.9453 45.9512 17.0877 46.1788 17.0877 46.2926C17.0877 46.5203 17.0165 47.0439 16.7317 47.3171C16.3757 47.6585 17.4437 46.9756 17.4437 46.2926C17.4437 45.7463 17.2064 45.6097 17.0877 45.6097C16.7317 45.382 15.8774 44.7902 15.3078 44.2438C15.1894 44.1303 15.1655 43.9036 16.0126 43.9023C16.0153 43.9023 16.0181 43.9028 16.0207 43.9037C16.0224 43.9043 16.024 43.9051 16.0256 43.906C16.3796 44.1312 16.7317 44.2438 16.7317 44.2438C16.6427 44.1584 16.576 44.0731 16.5092 43.9877C16.309 43.7316 16.1088 43.4755 15.3078 43.2194C15.1893 42.9921 16.168 40.5087 17.3021 40.7795C17.8525 40.8361 18.4185 40.8733 19 40.889L9.10417 27.2L34.0417 35.2L13.0625 24L24.5417 17.9049L18.6289 17.7615C18.5873 17.764 18.5639 17.7159 18.5925 17.6865L25.7292 11.2L18.1873 11.7808L21.375 7.6L16.0533 10.768L18.9713 3.97548L13.8409 10.6931L16.4751 0L9.98645 8.37245L10.6875 2L6.69218 8.04396L6.4079 5.99883L4.27193 13.9189L3.55994 11.8039L2.65632 18.1528C2.28334 18.2506 2.04121 18.364 1.81148 18.4715C1.68609 18.5302 1.56439 18.5872 1.42713 18.639C1.36865 18.6728 1.30512 18.7086 1.23851 18.7462C0.843925 18.9687 0.341564 19.2519 0.145055 19.5361C-0.217371 19.9919 0.16496 20.7419 0.573211 21.0955L0.5708 21.0797C0.515759 20.7202 0.44743 20.2739 0.865209 20.0358C1.19702 19.8466 2.45808 19.3419 2.75178 19.3952C3.1826 19.4733 3.69991 19.292 3.87649 19.1627C4.15504 19.2218 4.5596 19.3571 4.67481 19.499C4.84182 19.7047 4.85093 19.81 4.4423 19.8167C4.03368 19.8234 3.83881 19.6719 3.79246 19.5953C2.93821 19.4943 1.43196 19.789 0.865209 20.0358C0.865209 20.1847 1.29781 20.4713 1.73042 20.3407C2.09783 20.2298 2.56184 20.234 3.20395 20.3407C4.07557 20.4856 4.84052 20.8857 4.84052 20.8857C4.63028 20.6352 4.39928 20.1046 5.15721 19.9852L5.13916 19.9359C4.88511 19.2417 4.504 18.2002 3.92761 17.9936C3.74487 17.9281 2.83321 18.1108 2.83321 18.1108C2.83321 18.1108 3.80751 16.8469 4.62793 16.5847C4.62793 15.4882 5.81129 10.7008 7.125 9.2V11.6L9.10417 8.8L8.3125 12.4L12.2708 8.37245L10.2917 12L12.2708 11.6L11.4792 13.2L12.6667 13.6L6.14875 16.9566C6.12582 16.9663 6.09762 16.9784 6.0986 17.0024C6.09917 17.0164 6.10752 17.0303 6.12251 17.0369C6.51454 17.2116 6.75681 17.6171 6.68846 18.044C6.60672 18.5545 6.11122 18.9047 5.57616 18.8344C5.56487 18.8329 5.55428 18.8402 5.55256 18.8509C5.55109 18.8601 5.55663 18.8691 5.56587 18.8723C5.85719 18.9717 6.18714 18.9586 6.47803 18.8154Z" fill="white"/>
  <path d="M3.87649 19.1627C3.69991 19.292 3.1826 19.4733 2.75178 19.3952C2.45808 19.3419 1.19702 19.8466 0.865209 20.0358C1.43196 19.789 2.93821 19.4943 3.79246 19.5953C3.83881 19.6719 4.03368 19.8234 4.4423 19.8167C4.85093 19.81 4.84182 19.7047 4.67481 19.499C4.5596 19.3571 4.15504 19.2218 3.87649 19.1627Z" fill="#09090D"/>
  <path d="M10.4035 39.1356C11.2896 39.6044 12.1984 40.0475 13.0944 40.469L13.3702 40.1134C12.4744 39.692 11.5658 39.249 10.6798 38.7802C9.39814 38.2885 8.29025 37.6953 7.33668 37.0339L7.52597 37.6991C8.38281 38.2412 9.33975 38.7274 10.4035 39.1356Z" fill="#09090D"/>
  <path d="M33.3812 44.1519C36.0831 44.7503 38 43.2194 38 43.2194L30.2085 38.5916C31.8064 37.7607 33.1776 36.6553 34.0417 35.2C29.2917 37.0339 24.5417 36.8 15.7002 31.503L16.5993 34.0602L23.75 40.5577C24.2682 40.474 24.4001 40.5173 24.9375 40.4C26.4563 41.1674 29.0678 42.3029 32.772 43.9134L33.1264 44.0675C33.2081 44.1031 33.2943 44.1326 33.3812 44.1519Z" fill="white"/>
</svg>
