<svg width="82" height="12" viewBox="0 0 82 12" fill="none" xmlns="http://www.w3.org/2000/svg">
  <path d="M10.5566 11.8347V0.15962H18.4398L17.4398 2.19477H13.0301V4.97672H18.0342L17.0342 7.01188H13.0301V9.79952H18.4627L17.4627 11.8347H10.5566Z" fill="white"/>
  <path d="M24.5536 11.8347H20.4063V0.15962H24.5879C25.7646 0.15962 26.7776 0.393349 27.6269 0.860808C28.4762 1.32447 29.1293 1.99145 29.5863 2.86176C30.0471 3.73207 30.2775 4.7734 30.2775 5.98575C30.2775 7.2019 30.0471 8.24703 29.5863 9.12114C29.1293 9.99525 28.4723 10.666 27.6155 11.1335C26.7624 11.6009 25.7418 11.8347 24.5536 11.8347ZM22.8798 9.71971H24.4508C25.182 9.71971 25.797 9.5905 26.2959 9.33207C26.7986 9.06983 27.1756 8.66508 27.427 8.11781C27.6821 7.56675 27.8097 6.85606 27.8097 5.98575C27.8097 5.12304 27.6821 4.41805 27.427 3.87078C27.1756 3.32352 26.8005 2.92066 26.3016 2.66223C25.8027 2.4038 25.1877 2.27458 24.4565 2.27458H22.8798V9.71971Z" fill="white"/>
  <path d="M41.8952 0.15962V11.8347H39.7587L34.6689 4.48646H34.5833V11.8347H32.1098V0.15962H34.2805L39.3303 7.50214H39.4331V0.15962H41.8952Z" fill="white"/>
  <path d="M46.4123 0.15962V10.8347L43.9388 11.8347V0.15962H46.4123Z" fill="white"/>
  <path d="M60.6849 11.8347V0.15962H63.1584V4.97672H68.1797V0.15962H70.6475V11.8347H68.1797V7.01188H63.1584V11.8347H60.6849Z" fill="white"/>
  <path d="M56.2049 3.93349C56.125 3.65606 56.0126 3.41093 55.8679 3.1981C55.7232 2.98147 55.5461 2.79905 55.3366 2.65083C55.131 2.49881 54.8949 2.3829 54.6283 2.30309C54.3655 2.22328 54.0742 2.18337 53.7543 2.18337C53.1564 2.18337 52.6308 2.33159 52.1776 2.62803C51.7283 2.92447 51.3779 3.35582 51.1266 3.92209C50.8752 4.48456 50.7495 5.17245 50.7495 5.98575C50.7495 6.79905 50.8733 7.49074 51.1208 8.06081C51.3684 8.63088 51.7187 9.06603 52.1719 9.36627C52.6251 9.66271 53.1602 9.81093 53.7771 9.81093C54.337 9.81093 54.8149 9.71211 55.211 9.51449C55.6108 9.31306 55.9155 9.02993 56.125 8.66508C56.3276 8.31846 56.4339 7.91181 56.4441 7.44513H54.4341L53.9314 5.5867H58.827V7.05748C58.827 8.08361 58.6099 8.96532 58.1757 9.70261C57.7416 10.4361 57.1437 11.0024 56.382 11.4014C55.6204 11.7967 54.7483 11.9943 53.7657 11.9943C52.6689 11.9943 51.7054 11.753 50.8752 11.2703C50.045 10.7838 49.3976 10.0941 48.933 9.20095C48.4722 8.30404 48.2418 7.2399 48.2418 6.00855C48.2418 5.06223 48.3789 4.21853 48.653 3.47743C48.9311 2.73254 49.3195 2.10166 49.8184 1.5848C50.3173 1.06793 50.8981 0.674584 51.5607 0.40475C52.2233 0.134917 52.9412 0 53.7143 0C54.3769 0 54.9939 0.0969122 55.5651 0.290737C56.1364 0.48076 56.6429 0.750594 57.0847 1.10024C57.5302 1.44988 57.8939 1.86603 58.1757 2.34869C58.4575 2.82755 58.6384 3.35582 58.7184 3.93349H56.2049Z" fill="white"/>
  <path d="M72.2412 2.19477V0.15962H81.8496V2.19477H78.2679V11.1752L75.823 11.8347V2.19477H72.2412Z" fill="white"/>
  <path fill-rule="evenodd" clip-rule="evenodd" d="M0 11.8347V0.15962H4.61567C5.4992 0.15962 6.25324 0.31734 6.87781 0.632779C7.50618 0.944418 7.98412 1.38717 8.31163 1.96105C8.64296 2.53112 8.80862 3.2019 8.80862 3.9734C8.80862 4.74869 8.64105 5.41568 8.30592 5.97435C7.97079 6.52922 7.48523 6.95487 6.84924 7.25131C6.81438 7.26766 6.7791 7.28356 6.74342 7.29901L8.87443 11.1929L6.49507 11.8347L4.27905 7.69596H2.4735V11.8347H0ZM5.32973 5.51829C5.01745 5.64751 4.62519 5.71211 4.15296 5.71211H2.4735V2.17767H4.14154C4.61758 2.17767 5.01173 2.24798 5.32402 2.3886C5.64011 2.52542 5.87432 2.72684 6.02665 2.99287C6.18279 3.25891 6.26086 3.58575 6.26086 3.9734C6.26086 4.35724 6.18279 4.67838 6.02665 4.93682C5.87432 5.19525 5.64201 5.38907 5.32973 5.51829Z" fill="white"/>
</svg>
