<svg width="80" height="12" viewBox="0 0 80 12" fill="none" xmlns="http://www.w3.org/2000/svg">
  <path d="M10.2295 11.8403V0.159696H18.2887L17.5142 1.93346H12.4742V5.10456H17.8712L17.0968 6.87833H12.4742V10.0665H18.3371L17.5627 11.8403H10.2295Z" fill="white"/>
  <path d="M23.9259 11.8403H19.7269V0.159696H24.0106C25.2409 0.159696 26.2977 0.393536 27.1811 0.861217C28.0685 1.3251 28.7501 1.9924 29.2261 2.86312C29.7021 3.73384 29.9401 4.77567 29.9401 5.98859C29.9401 7.20532 29.7001 8.25095 29.2201 9.12548C28.7441 10 28.0564 10.6711 27.1569 11.1388C26.2614 11.6065 25.1844 11.8403 23.9259 11.8403ZM21.9716 10.0095H23.817C24.6802 10.0095 25.4002 9.86122 25.977 9.56464C26.5538 9.26426 26.9874 8.81749 27.2779 8.22434C27.5683 7.62738 27.7135 6.88213 27.7135 5.98859C27.7135 5.09506 27.5683 4.35361 27.2779 3.76426C26.9874 3.1711 26.5579 2.72814 25.9891 2.43536C25.4244 2.13878 24.7226 1.99049 23.8836 1.99049H21.9716V10.0095Z" fill="white"/>
  <path d="M41.4039 0.159696V11.8403H39.4072L33.5685 3.88403H33.4657V11.8403H31.2209V0.159696H33.2297L39.0623 8.12167H39.1712V0.159696H41.4039Z" fill="white"/>
  <path d="M45.2426 0.159696V11.1103L42.9978 11.8403V0.159696H45.2426Z" fill="white"/>
  <path d="M58.8313 11.8403V0.159696H61.076V5.10456H66.8179V0.159696H69.0686V11.8403H66.8179V6.87833H61.076V11.8403H58.8313Z" fill="white"/>
  <path d="M70.1136 1.93346V0.159696H80V1.93346H76.1701V11.1103L73.9435 11.8403V1.93346H70.1136Z" fill="white"/>
  <path fill-rule="evenodd" clip-rule="evenodd" d="M0 11.8403V0.159696H4.64675C5.59869 0.159696 6.39735 0.315589 7.04273 0.627376C7.69214 0.939163 8.18223 1.37643 8.51299 1.93916C8.84778 2.4981 9.01518 3.15019 9.01518 3.89544C9.01518 4.64449 8.84576 5.29468 8.50694 5.84601C8.17215 6.39354 7.67802 6.81749 7.02458 7.11787C6.94803 7.15261 6.86944 7.18532 6.7888 7.21599L9.46896 11.8403H6.96407L4.52889 7.56274H2.24472V11.8403H0ZM5.68138 5.58935C5.32642 5.73384 4.87062 5.80608 4.31397 5.80608H2.24472V1.92776H4.30187C4.86255 1.92776 5.32037 2.0057 5.67533 2.1616C6.03029 2.31369 6.29449 2.53802 6.46793 2.8346C6.64138 3.12738 6.7281 3.48099 6.7281 3.89544C6.7281 4.30989 6.64138 4.6597 6.46793 4.94487C6.29852 5.22624 6.03634 5.44106 5.68138 5.58935Z" fill="white"/>
  <path d="M55.1227 3.88973C55.0218 3.58175 54.8827 3.30608 54.7052 3.06274C54.5317 2.81559 54.322 2.60456 54.0759 2.42966C53.8339 2.25475 53.5556 2.12357 53.241 2.03612C52.9263 1.94487 52.5835 1.89924 52.2124 1.89924C51.5468 1.89924 50.9539 2.05703 50.4336 2.37262C49.9132 2.68821 49.5038 3.15209 49.2053 3.76426C48.9109 4.37262 48.7636 5.11407 48.7636 5.98859C48.7636 6.87072 48.9109 7.61787 49.2053 8.23004C49.4998 8.84221 49.9092 9.30799 50.4336 9.62738C50.9579 9.94297 51.567 10.1008 52.2608 10.1008C52.89 10.1008 53.4346 9.98669 53.8944 9.75856C54.3583 9.53042 54.7153 9.20723 54.9653 8.78897C55.2045 8.38544 55.3293 7.91585 55.3397 7.38023H53.2591L52.4847 5.72624H57.5126V7.12928C57.5126 8.12928 57.2867 8.9943 56.8349 9.72434C56.3832 10.4544 55.762 11.0171 54.9714 11.4125C54.1808 11.8042 53.2732 12 52.2487 12C51.1072 12 50.1048 11.7586 49.2416 11.2757C48.3824 10.789 47.7108 10.0989 47.2268 9.20532C46.7468 8.30799 46.5068 7.24335 46.5068 6.01141C46.5068 5.06844 46.648 4.22624 46.9303 3.48479C47.2167 2.74335 47.6161 2.11407 48.1283 1.59696C48.6406 1.07605 49.2416 0.680608 49.9314 0.410646C50.6211 0.136882 51.3714 0 52.1821 0C52.8679 0 53.5072 0.0950571 54.1001 0.285171C54.6931 0.471483 55.2195 0.737643 55.6793 1.08365C56.1432 1.42966 56.5243 1.8403 56.8228 2.31559C57.1213 2.79087 57.317 3.31559 57.4097 3.88973H55.1227Z" fill="white"/>
</svg>
