<svg class="sr-only">
  <defs>
    <g id="ic-checkmark">
      <path
        fill-rule="evenodd"
        d="M13.854 4.148a.51.51 0 0 1 0 .714l-6.859 6.93a.695.695 0 0 1-.99 0L3.146 8.905a.509.509 0 0 1 0-.714.496.496 0 0 1 .708 0L6.5 10.864l6.646-6.716a.496.496 0 0 1 .708 0Z"
      />
    </g>

    <g id="ic-minus">
      <path fill-rule="evenodd" d="M15 8.5a.5.5 0 0 1-.5.5h-13a.5.5 0 0 1 0-1h13a.5.5 0 0 1 .5.5Z" />
    </g>

    <g id="ic-account">
      <path fill-rule="evenodd" d="M8 1.11628C4.19823 1.11628 1.11628 4.19823 1.11628 8C1.11628 9.69197 1.72672 11.2414 2.73937 12.44C3.00899 11.9345 3.43738 11.4808 3.9898 11.109L3.99257 11.1072L3.99258 11.1072C5.12267 10.3565 6.57964 9.99814 8.00558 9.99814C9.43134 9.99814 10.8855 10.3565 12.009 11.1082L12.0102 11.109C12.5626 11.4808 12.991 11.9345 13.2606 12.44C14.2733 11.2414 14.8837 9.69197 14.8837 8C14.8837 4.19823 11.8018 1.11628 8 1.11628ZM9.21832 15.9078C13.0584 15.3211 16 12.0041 16 8C16 3.58172 12.4183 0 8 0C3.58172 0 0 3.58172 0 8C0 12.4183 3.58172 16 8 16C8.13807 16 8.27533 15.9965 8.41168 15.9896C8.61527 15.9793 8.81686 15.9613 9.01616 15.9361C9.08381 15.9275 9.1512 15.9181 9.21832 15.9078ZM12.4068 13.2837C12.2819 12.8637 11.9613 12.4217 11.3876 12.0356C10.487 11.4332 9.26233 11.1144 8.00558 11.1144C6.74937 11.1144 5.52045 11.4329 4.61161 12.0361C4.03844 12.4221 3.71805 12.8639 3.59321 13.2837C4.32431 13.8959 5.18151 14.3578 6.12125 14.6242C6.71845 14.7933 7.34866 14.8837 8 14.8837C8.65134 14.8837 9.28155 14.7933 9.87875 14.6242C10.8185 14.3578 11.6757 13.8959 12.4068 13.2837ZM8 4.26419C6.95494 4.26419 6.11721 5.10714 6.11721 6.14698C6.11721 7.15072 6.90131 7.96912 7.89481 8.02114C7.96326 8.01555 8.03624 8.01505 8.10712 8.02104C9.09634 7.96818 9.87627 7.15298 9.88279 6.14545C9.88196 5.10742 9.03822 4.26419 8 4.26419ZM5.00093 6.14698C5.00093 4.49286 6.33622 3.14791 8 3.14791C9.65523 3.14791 10.9991 4.49175 10.9991 6.14698V6.15013H10.9991C10.9899 7.7638 9.72069 9.08331 8.10832 9.13828C8.07558 9.1394 8.0428 9.13763 8.01037 9.13299C8.01357 9.13345 8.0142 9.13341 8.01214 9.13328C8.01022 9.13316 8.00702 9.13302 8.00279 9.13302C7.99364 9.13302 7.9852 9.13364 7.97993 9.13429C7.95066 9.13795 7.92116 9.13929 7.89168 9.13828C6.28213 9.08341 5.00093 7.76593 5.00093 6.14698Z" fill="white"/>
    </g>
  </defs>
</svg>
