<svg width="16" height="16" viewBox="0 0 16 16" fill="none" xmlns="http://www.w3.org/2000/svg">
  <path d="M6.87087 9.35973L4.69538 10.0347C4.52944 10.1142 4.34122 10.1215 4.17504 10.0663C4.16977 10.0645 4.16661 10.0595 4.16745 10.0544C4.16843 10.0484 4.17447 10.0444 4.18091 10.0452C4.48613 10.0843 4.7688 9.88988 4.81542 9.60626C4.85441 9.36921 4.71621 9.14404 4.49258 9.04706C4.48402 9.04331 4.47927 9.03562 4.47894 9.02784C4.47838 9.01452 4.49446 9.00773 4.50755 9.00237L7.02589 7.58701L7.99991 7.03959L8.62008 6.69104L8.25825 6.73373L7.37347 6.83814L7.82822 6.24972L7.99991 6.02758L6.87087 6.24972L7.99991 4.23514L5.74185 6.47187L6.19346 4.47258L5.06445 6.02758V4.69472L4.64657 5.85797L4.22869 7.02123L3.59612 8.78212L2.6162 9.64335C2.6162 9.64335 3.13625 9.5419 3.2405 9.57828C3.56928 9.69304 3.79697 10.2987 3.94189 10.6843L3.94192 10.6843C3.50956 10.7507 3.64133 11.0454 3.76127 11.1844C3.8133 11.2216 3.88614 11.3429 3.76127 11.5314L4.2518 11.1844L4.16123 11.8033L5.74185 11.1369L6.87087 9.35973Z" fill="black"/>
  <path d="M4.65137 9.47933C4.67849 9.67893 4.53434 9.90507 4.31976 9.93537C4.12925 9.96228 4.0153 9.89479 3.94267 9.7836L3.96623 9.76608C4.03821 9.81184 4.12372 9.84027 4.26021 9.82096C4.40284 9.80085 4.48417 9.75365 4.51505 9.66597C4.52324 9.64272 4.50121 9.62226 4.47656 9.61564C4.42937 9.60286 4.3927 9.56541 4.38609 9.51669L4.59151 9.3911C4.62259 9.4071 4.6455 9.43607 4.65137 9.47933Z" fill="white"/>
  <path d="M4.69538 10.0347L6.87087 9.35973L5.74185 11.1369L4.16123 11.8033L4.2518 11.1844L3.76127 11.5314C3.45762 11.9768 3.19976 12.4305 2.82768 13.0878C2.56195 13.5574 2.06474 14.9114 2.29152 16C5.45347 10.9406 12.0813 9.57792 15 9.52912L11.5121 8.55437L15 6.68658L11.375 6.128L13.6155 4.23514L10.1585 5.56519L10.1576 5.56552L12.1604 1.95693L8.82459 4.9743L10.252 0L6.69676 4.23514L7.09667 0.696143L4.81754 4.0527L4.65538 2.91692L3.43691 7.3154L3.03076 6.14083L2.51529 9.66668C1.77968 9.84706 1.19485 10.2771 1.08275 10.4349C0.876 10.6881 1.0941 11.1045 1.32698 11.301L1.32561 11.2922L1.32561 11.2922C1.29421 11.0925 1.25524 10.8447 1.49356 10.7125C1.68284 10.6074 2.40221 10.3272 2.56975 10.3566C2.81551 10.4001 3.11061 10.2994 3.21134 10.2276C3.37023 10.2604 3.60102 10.3356 3.66673 10.4144C3.76201 10.5285 3.7672 10.5871 3.53411 10.5907C3.301 10.5945 3.18984 10.5104 3.1634 10.4678C2.67609 10.4117 1.81685 10.5755 1.49356 10.7125C1.49356 10.7952 1.74033 10.9544 1.98711 10.8818C2.1967 10.8202 2.4614 10.8225 2.82768 10.8818C3.3249 10.9622 3.76127 11.1844 3.76127 11.1844C3.64133 11.0454 3.50956 10.7507 3.94192 10.6843L3.94189 10.6843C3.79697 10.2987 3.56928 9.69304 3.2405 9.57828C3.13625 9.5419 2.6162 9.64335 2.6162 9.64335L3.59612 8.78212L4.22869 7.02123L4.64657 5.85797L5.06445 4.69472V6.02758L6.19346 4.47258L5.74185 6.47187L7.99991 4.23514L6.87087 6.24972L7.99991 6.02758L7.82822 6.24972L7.37347 6.83814L8.25825 6.73373L8.62008 6.69104L7.99991 7.03959L7.02589 7.58701L4.50755 9.00237C4.49446 9.00773 4.47838 9.01452 4.47894 9.02784C4.47927 9.03562 4.48402 9.04331 4.49258 9.04706C4.71621 9.14404 4.85441 9.36921 4.81542 9.60626C4.7688 9.88988 4.48613 10.0843 4.18091 10.0452C4.17447 10.0444 4.16843 10.0484 4.16745 10.0544C4.16661 10.0595 4.16977 10.0645 4.17504 10.0663C4.34122 10.1215 4.52944 10.1142 4.69538 10.0347Z" fill="white"/>
</svg>
