<svg width="16" height="16" viewBox="0 0 16 16" fill="none" xmlns="http://www.w3.org/2000/svg">
  <rect width="16" height="16" rx="2" fill="black"/>
  <path fill-rule="evenodd" clip-rule="evenodd" d="M4 14V2H8.50731C9.43068 2 10.2054 2.16016 10.8314 2.48047C11.4613 2.80078 11.9367 3.25 12.2575 3.82812C12.5823 4.40234 12.7446 5.07227 12.7446 5.83789C12.7446 6.60742 12.5803 7.27539 12.2517 7.8418C11.9269 8.4043 11.4476 8.83984 10.8138 9.14844C10.7376 9.18507 10.6593 9.2195 10.5789 9.25173L12.6708 13.1528L10.7551 14L8.39299 9.60547H6.17736V14H4ZM9.51088 7.57813C9.16657 7.72656 8.72446 7.80078 8.18452 7.80078H6.17736V3.81641H8.17278C8.71663 3.81641 9.1607 3.89648 9.50501 4.05664C9.84932 4.21289 10.1056 4.44336 10.2738 4.74805C10.4421 5.04883 10.5262 5.41211 10.5262 5.83789C10.5262 6.26367 10.4421 6.62305 10.2738 6.91602C10.1095 7.20508 9.85519 7.42578 9.51088 7.57813Z" fill="white"/>
</svg>
